{"title":"Staten.Island.2009.DVDRiP.XViD.AC3.NiTR0","uid":6130324,"size":1486188782,"categoryP":"video","categoryS":"movies","magnet":"?xt=urn:btih:362970419856d42d1da51a9f940028fc138d04a3&amp;dn=Staten.Island.2009.DVDRiP.XViD.AC3.NiTR0&amp;tr=udp%3A%2F%2Ftracker.openbittorrent.com%3A80&amp;tr=udp%3A%2F%2Fopen.demonii.com%3A1337&amp;tr=udp%3A%2F%2Ftracker.coppersurfer.tk%3A6969&amp;tr=udp%3A%2F%2Fexodus.desync.com%3A6969","seeders":0,"leechers":1,"uploader":"TvTeam","files":5,"time":1296101350,"description":". \n  &lt;a href=&quot;\nhttp://www.torrentday.com/&quot; rel=&quot;nofollow&quot; target=&quot;_NEW&quot;&gt;\nhttp://www.torrentday.com/&lt;/a&gt;        :     The Hottest Private Tracker On The Net!!!\n &lt;a href=&quot;\nhttp://www.torrentday.com&quot; rel=&quot;nofollow&quot; target=&quot;_NEW&quot;&gt;\nhttp://www.torrentday.com&lt;/a&gt;          :     Once &amp; For all ;)\n\n\n               www . TorrentDay . Com \n\n(((((((((((((= Enjoy No RAR releases =))))))))))))))))))))\n\n\n...................................NFO:....................................\n\n.Staten.Island.2009.DVDRip.XViD.AC3.NiTR0\n &lt;a href=&quot;\nhttp://www.imdb.com/title/tt0976246/&quot; rel=&quot;nofollow&quot; target=&quot;_NEW&quot;&gt;\nhttp://www.imdb.com/title/tt0976246/&lt;/a&gt;\n\nSource: R1 NTSC DVD9\n\nGeneral\nComplete name                    : D:\\Encodes\\Staten.Island.2009.NTSC.DVDR-BeStDvD\\Staten.Island.2009.DVDRip.XViD.AC3.NiTR0.avi\nFormat                           : AVI\nFormat/Info                      : Audio Video Interleave\nFormat profile                   : OpenDML\nFormat settings                  : rec\nFile size                        : 1.37 GiB\nDuration                         : 1h 36mn\nOverall bit rate                 : 2 038 Kbps\n\nVideo\nID                               : 0\nFormat                           : MPEG-4 Visual\nFormat profile                   : Advanced Simple@L5\nFormat settings, BVOP            : 2\nFormat settings, QPel            : No\nFormat settings, GMC             : No warppoints\nFormat settings, Matrix          : Default (H.263)\nMuxing mode                      : Packed bitstream\nCodec ID                         : XVID\nDuration                         : 1h 36mn\nBit rate                         : 1 584 Kbps\nWidth                            : 720 pixels\nHeight                           : 304 pixels\nDisplay aspect ratio             : 2.35:1\nFrame rate                       : 23.976 fps\nScan type                        : Progressive\nBits/(Pixel*Frame)               : 0.302\nStream size                      : 1.06 GiB (78%)\n\n\nAudio\nID                               : 1\nFormat                           : AC-3\nFormat/Info                      : Audio Coding 3\nMode extension                   : CM (complete main)\nCodec ID                         : 2000\nDuration                         : 1h 36mn\nBit rate mode                    : Constant\nBit rate                         : 448 Kbps\nChannel(s)                       : 6 channels\nChannel positions                : Front: L C R, Side: L R, LFE\nSampling rate                    : 48.0 KHz\nStream size                      : 308 MiB (22%)\nAlignment                        : Aligned on interleaves\nInterleave, duration             : 64 ms (1.53 video frames)\nInterleave, preload duration     : 192 ms","torrent":{"xt":"urn:btih:362970419856d42d1da51a9f940028fc138d04a3","amp;dn":"Staten.Island.2009.DVDRiP.XViD.AC3.NiTR0","amp;tr":["udp%3A%2F%2Ftracker.openbittorrent.com%3A80","udp%3A%2F%2Fopen.demonii.com%3A1337","udp%3A%2F%2Ftracker.coppersurfer.tk%3A6969","udp%3A%2F%2Fexodus.desync.com%3A6969"],"infoHash":"362970419856d42d1da51a9f940028fc138d04a3","infoHashBuffer":{"type":"Buffer","data":[54,41,112,65,152,86,212,45,29,165,26,159,148,0,40,252,19,141,4,163]},"announce":[],"urlList":[]}}